# 3ds Max Wavefront OBJ Exporter v0.97b - (c)2007 guruware
# File Created: 27.01.2018 19:32:26

mtllib Mesh_Router.mtl

#
# object Pyramid001
#

v  -0.0000 26.5830 0.6275
v  -20.9097 0.4142 20.3502
v  20.9097 0.4142 20.3502
v  0.6607 26.5809 -0.0000
v  21.3734 0.4146 19.8864
v  21.3734 0.4146 -19.8864
v  0.0000 26.5830 -0.6275
v  20.9097 0.4142 -20.3502
v  -20.9097 0.4142 -20.3502
v  -0.6607 26.5809 0.0000
v  -21.3734 0.4146 -19.8864
v  -21.3734 0.4146 19.8864
v  -21.3678 0.0000 20.3445
v  -0.0000 0.0000 -0.0000
v  21.1541 0.0000 20.1147
v  21.3678 0.0000 -20.3445
v  -21.3678 0.0000 -20.3445
v  0.0002 26.8005 -0.0000
# 18 vertices

vn 0.0000 0.9731 0.2303
vn 0.2198 0.9755 -0.0000
vn 0.0000 0.9731 -0.2303
vn -0.2198 0.9755 -0.0000
vn 0.0000 -1.0000 -0.0000
vn -0.0591 0.9964 0.0616
vn 0.5484 -0.8362 0.0015
vn 0.0000 -0.0763 -0.9971
vn -0.9971 -0.0760 -0.0000
vn 0.1119 0.9870 -0.1150
vn 0.1591 0.9743 -0.1592
vn -0.1119 0.9870 -0.1150
vn -0.1591 0.9743 -0.1592
vn -0.1119 0.9870 0.1150
vn -0.1591 0.9743 0.1592
vn 0.1119 0.9870 0.1150
vn -0.0591 0.9964 -0.0616
vn 0.0591 0.9963 0.0616
vn 0.0591 0.9963 -0.0616
vn 0.0014 -0.8532 0.5216
vn 0.7046 0.0859 0.7044
# 21 vertex normals

vt 0.3547 0.9840 0.0000
vt 0.0188 0.6224 0.0000
vt 0.7294 0.6228 0.0000
vt 0.0087 0.6047 0.0000
vt 0.3220 0.3081 0.0000
vt 0.6338 0.6047 0.0000
vt 0.6338 0.0097 0.0000
vt 0.0087 0.0097 0.0000
vt 0.3540 0.9949 0.0000
vt 0.3434 0.9947 0.0000
vt 0.0090 0.6124 0.0000
vt 0.7347 0.6123 0.0000
vt 0.0088 0.6278 0.0000
# 13 texture coords

g Pyramid001
usemtl Material__46
s off
f 1/1/1 2/2/1 3/3/1 
f 4/1/2 5/2/2 6/3/2 
f 7/1/3 8/2/3 9/3/3 
f 10/1/4 11/2/4 12/3/4 
f 13/4/5 14/5/5 15/6/5 
f 16/7/5 14/5/5 17/8/5 
f 17/8/5 14/5/5 13/4/5 
f 1/1/6 18/9/6 10/10/6 
f 5/2/7 15/11/7 16/12/7 6/3/7 
f 8/2/8 16/11/8 17/12/8 9/3/8 
f 11/2/9 17/11/9 13/12/9 12/3/9 
f 7/1/10 4/10/10 6/13/10 8/2/10 
f 8/2/11 6/13/11 16/11/11 
f 10/1/12 7/10/12 9/13/12 11/2/12 
f 17/11/13 11/2/13 9/13/13 
f 12/13/14 2/2/14 1/1/14 10/10/14 
f 13/11/15 2/2/15 12/13/15 
f 4/1/16 1/10/16 3/13/16 5/2/16 
f 7/10/17 10/1/17 18/9/17 
f 1/10/18 4/1/18 18/9/18 
f 18/9/19 4/10/19 7/1/19 
f 2/2/20 13/11/20 15/12/20 3/3/20 
f 14/5/5 16/7/5 15/6/5 
f 3/13/21 15/11/21 5/2/21 
# 8 polygons - 16 triangles

